<svg id="Layer_1" data-name="Layer 1" xmlns="http://www.w3.org/2000/svg" xmlns:xlink="http://www.w3.org/1999/xlink" viewBox="0 0 104 88"><defs><style>.cls-1,.cls-13{fill:none;}.cls-1,.cls-13,.cls-2,.cls-4,.cls-5{stroke:#686868;}.cls-1,.cls-4,.cls-5{stroke-miterlimit:10;}.cls-2{fill:#fff;}.cls-13,.cls-2{stroke-linecap:round;stroke-linejoin:round;}.cls-3{clip-path:url(#clip-path);}.cls-4{fill:#ffa165;}.cls-5{fill:#ffa466;}.cls-6{opacity:0.7;}.cls-7{fill:url(#linear-gradient);}.cls-8{fill:url(#linear-gradient-2);}.cls-9{fill:url(#linear-gradient-3);}.cls-10{fill:url(#linear-gradient-4);}.cls-11{fill:url(#linear-gradient-5);}.cls-12{fill:url(#linear-gradient-6);}.cls-14{fill:#686868;}</style><clipPath id="clip-path"><circle class="cls-1" cx="52.96" cy="33.46" r="12.05"/></clipPath><linearGradient id="linear-gradient" x1="14.35" y1="50.74" x2="27.63" y2="50.74" gradientUnits="userSpaceOnUse"><stop offset="0" stop-color="#ff7002"/><stop offset="0.3" stop-color="#fe7304"/><stop offset="0.5" stop-color="#fc7c0a"/><stop offset="0.68" stop-color="#f88b15"/><stop offset="0.84" stop-color="#f3a125"/><stop offset="0.98" stop-color="#ecbd39"/><stop offset="1" stop-color="#ebc03b"/></linearGradient><linearGradient id="linear-gradient-2" x1="14.69" y1="53.12" x2="25.32" y2="53.12" xlink:href="#linear-gradient"/><linearGradient id="linear-gradient-3" x1="15.27" y1="46.93" x2="28.73" y2="46.93" xlink:href="#linear-gradient"/><linearGradient id="linear-gradient-4" x1="16.53" y1="54.55" x2="22.92" y2="54.55" xlink:href="#linear-gradient"/><linearGradient id="linear-gradient-5" x1="18.24" y1="42.85" x2="27.21" y2="42.85" xlink:href="#linear-gradient"/><linearGradient id="linear-gradient-6" x1="18.41" y1="55.53" x2="20.54" y2="55.53" xlink:href="#linear-gradient"/></defs><polyline class="cls-2" points="59.38 12.54 59.38 7.94 45.11 7.94 45.11 12.54"/><rect class="cls-1" x="25.72" y="12.72" width="53.12" height="63.44" rx="3.21"/><rect class="cls-2" x="9.57" y="37.8" width="24.73" height="24.08" rx="4.47"/><g class="cls-3"><circle class="cls-4" cx="53.44" cy="45.28" r="8.45"/></g><circle class="cls-1" cx="52.96" cy="33.46" r="12.05"/><circle class="cls-5" cx="52.8" cy="29.42" r="3.93"/><path class="cls-1" d="M79.21,41.18h0c6,0,12.51,4.89,12.51,10.91v1.67h0a10.72,10.72,0,0,1,10.73,10.73V65"/><g id="GcMbEf.tif" class="cls-6"><path class="cls-7" d="M26.61,55.72a.44.44,0,0,1-.4-.52,11.39,11.39,0,0,0,0-2.54,6.47,6.47,0,0,0-4.81-5.3,7.19,7.19,0,0,0-1.63-.2,6.26,6.26,0,0,0-4.64,2.14.77.77,0,0,1-.31.21h-.07a.36.36,0,0,1-.28-.1.37.37,0,0,1-.1-.26,4.66,4.66,0,0,1,.12-1,1.17,1.17,0,0,1,.37-.56A7.61,7.61,0,0,1,19.2,45.8l.64,0a7.82,7.82,0,0,1,7.7,6.67A10,10,0,0,1,27.63,54a1.41,1.41,0,0,1-.16.69,5.09,5.09,0,0,1-.39.63l-.13.2A.41.41,0,0,1,26.61,55.72Z"/><path class="cls-8" d="M23.75,58.05a.35.35,0,0,1-.26-.13.49.49,0,0,1-.08-.39l.11-.52c.09-.41.18-.83.24-1.26a9.43,9.43,0,0,0,.07-2.82,4.09,4.09,0,0,0-3.48-3.32l-.49,0a4,4,0,0,0-4,3.46,2.91,2.91,0,0,0,0,.31c0,.27-.15.4-.33.43h0a.36.36,0,0,1-.39-.25L15,53.31a7.2,7.2,0,0,1-.28-.9,1.19,1.19,0,0,1,.08-.66,5.26,5.26,0,0,1,4.53-3.53,5.83,5.83,0,0,1,.59,0,5.37,5.37,0,0,1,5.28,4.52,7.87,7.87,0,0,1,.1,1c0,.17,0,.35,0,.54l-.1.75c-.07.6-.15,1.24-.25,1.88A1.38,1.38,0,0,1,23.87,58Z"/><path class="cls-9" d="M28.33,50.52a.42.42,0,0,1-.39-.33,8.86,8.86,0,0,0-1.6-2.52,8.67,8.67,0,0,0-5.77-2.88,6.62,6.62,0,0,0-.77,0,8.59,8.59,0,0,0-3.89,1,.61.61,0,0,1-.27.08.37.37,0,0,1-.27-.12.44.44,0,0,1,0-.53,2.46,2.46,0,0,1,1.52-1.32,10,10,0,0,1,11.43,4.13,2.42,2.42,0,0,1,.44,1.4V50q0,.44-.33.48Z"/><path class="cls-10" d="M21.11,58.5a.41.41,0,0,1-.34-.19.43.43,0,0,1,0-.4,10.5,10.5,0,0,0,.77-4.18,1.68,1.68,0,1,0-3.36,0,7.39,7.39,0,0,1-.41,2.62c0,.1-.15.38-.4.38a.6.6,0,0,1-.4-.22l-.26-.27a.66.66,0,0,1-.14-.64,6.51,6.51,0,0,0,.23-1.89,3.1,3.1,0,0,1,2.82-3.1l.26,0a3.1,3.1,0,0,1,3,2.57,5.81,5.81,0,0,1,.05.72v.32a12.51,12.51,0,0,1-.69,3.73c-.16.46-.34.59-.8.59Z"/><path class="cls-11" d="M26.82,44.72a.44.44,0,0,1-.28-.11,11.19,11.19,0,0,0-6.69-2.29l-1.15.08a.4.4,0,0,1-.44-.27.38.38,0,0,1,.21-.49A4.44,4.44,0,0,1,20.71,41a4,4,0,0,1,.59.05,13.86,13.86,0,0,1,3.47.95,5.27,5.27,0,0,1,2.36,2.13.38.38,0,0,1-.06.52A.35.35,0,0,1,26.82,44.72Z"/><path class="cls-12" d="M19.36,58.06a.79.79,0,0,1-.31-.09,3.54,3.54,0,0,1-.39-.19.39.39,0,0,1-.19-.57,7.71,7.71,0,0,0,.69-3.31v-.23a.7.7,0,0,1,.69-.67.71.71,0,0,1,.69.67v.57a9.13,9.13,0,0,1-.78,3.46C19.67,57.88,19.57,58.06,19.36,58.06Z"/></g><rect class="cls-13" x="41.32" y="51.72" width="24.33" height="4.22"/><rect class="cls-13" x="43.38" y="60.72" width="20.2" height="4.22"/><polygon class="cls-14" points="9.57 25.3 10.95 26.07 9.57 26.84 8.81 28.25 8.06 26.84 6.68 26.07 8.06 25.3 8.81 23.89 9.57 25.3"/><polygon class="cls-14" points="18.25 70.61 19.63 71.38 18.25 72.15 17.5 73.56 16.74 72.15 15.37 71.38 16.74 70.61 17.5 69.2 18.25 70.61"/><polygon class="cls-1" points="94.81 7.01 99.2 8.97 94.72 10.72 92.76 15.11 91.01 10.63 86.62 8.66 91.1 6.92 93.07 2.53 94.81 7.01"/></svg>